<svg width="20" height="20" viewBox="0 0 20 20" fill="none" xmlns="http://www.w3.org/2000/svg">
<path fill-rule="evenodd" clip-rule="evenodd" d="M6 8.2C6 5.94229 7.73115 4 10 4C12.2688 4 14 5.94229 14 8.2V9.8C14 12.0577 12.2688 14 10 14C7.73115 14 6 12.0577 6 9.8V8.2ZM10 6C8.95535 6 8 6.92331 8 8.2V9.8C8 11.0767 8.95535 12 10 12C11.0447 12 12 11.0767 12 9.8V8.2C12 6.92331 11.0447 6 10 6Z" fill="#27272A"/>
<path fill-rule="evenodd" clip-rule="evenodd" d="M10 0C4.47715 0 0 4.47715 0 10C0 15.5228 4.47715 20 10 20C15.5228 20 20 15.5228 20 10C20 4.47715 15.5228 0 10 0ZM2 10C2 5.58172 5.58172 2 10 2C14.4183 2 18 5.58172 18 10C18 12.3905 16.9515 14.5362 15.2892 16.0021C14.2119 15.3714 12.7569 15 11.2285 15H8.76988C7.23537 15 5.78878 15.3594 4.70746 15.9992C3.04713 14.5333 2 12.389 2 10ZM6.71113 17.2949C7.71435 17.7479 8.82773 18 10 18C11.1688 18 12.2791 17.7493 13.28 17.2988C12.6864 17.1146 11.9859 17 11.2285 17H8.76988C8.00111 17 7.30113 17.1121 6.71113 17.2949Z" fill="#27272A"/>
</svg>
