<svg width="20" height="20" viewBox="0 0 20 20" fill="none" xmlns="http://www.w3.org/2000/svg">
<path fill-rule="evenodd" clip-rule="evenodd" d="M0.529297 1.45058C0.529297 0.898292 0.977012 0.450576 1.5293 0.450576H7.48627C8.03856 0.450576 8.48627 0.898292 8.48627 1.45058V7.40755C8.48627 7.95984 8.03856 8.40755 7.48627 8.40755H1.5293C0.977012 8.40755 0.529297 7.95984 0.529297 7.40755V1.45058ZM2.5293 2.45058V6.40755H6.48627V2.45058H2.5293Z" fill="#27272A"/>
<path fill-rule="evenodd" clip-rule="evenodd" d="M14.8639 0.292832C15.2545 -0.0976921 15.8876 -0.0976921 16.2782 0.292832L19.7069 3.72158C20.0974 4.1121 20.0974 4.74527 19.7069 5.13579L16.2782 8.56454C15.8876 8.95506 15.2545 8.95506 14.8639 8.56454L11.4352 5.13579C11.0447 4.74527 11.0447 4.1121 11.4352 3.72158L14.8639 0.292832ZM15.571 2.41415L13.5565 4.42868L15.571 6.44322L17.5856 4.42868L15.571 2.41415Z" fill="#27272A"/>
<path fill-rule="evenodd" clip-rule="evenodd" d="M11.5922 12.5135C11.5922 11.9612 12.04 11.5135 12.5922 11.5135H18.5492C19.1015 11.5135 19.5492 11.9612 19.5492 12.5135V18.4705C19.5492 19.0228 19.1015 19.4705 18.5492 19.4705H12.5922C12.04 19.4705 11.5922 19.0228 11.5922 18.4705V12.5135ZM13.5922 13.5135V17.4705H17.5492V13.5135H13.5922Z" fill="#27272A"/>
<path fill-rule="evenodd" clip-rule="evenodd" d="M0.529297 12.5135C0.529297 11.9612 0.977012 11.5135 1.5293 11.5135H7.48627C8.03856 11.5135 8.48627 11.9612 8.48627 12.5135V18.4705C8.48627 19.0228 8.03856 19.4705 7.48627 19.4705H1.5293C0.977012 19.4705 0.529297 19.0228 0.529297 18.4705V12.5135ZM2.5293 13.5135V17.4705H6.48627V13.5135H2.5293Z" fill="#27272A"/>
</svg>
