<svg width="20" height="20" viewBox="0 0 20 20" fill="none" xmlns="http://www.w3.org/2000/svg">
<path fill-rule="evenodd" clip-rule="evenodd" d="M0 8.8C0 3.81014 4.61648 0 10 0C15.3835 0 20 3.81014 20 8.8C20 11.0034 19.0767 12.9907 17.6 14.5102V19C17.6 19.352 17.4149 19.6781 17.1128 19.8585C16.8106 20.039 16.4357 20.0473 16.1258 19.8804L11.6639 17.4774C11.123 17.5574 10.5674 17.6 10 17.6C4.61648 17.6 0 13.7899 0 8.8ZM10 2C5.44272 2 2 5.17386 2 8.8C2 12.4261 5.44272 15.6 10 15.6C10.5689 15.6 11.1241 15.548 11.6614 15.4514C11.884 15.4114 12.1135 15.448 12.3126 15.5552L15.6 17.3256V14.0908C15.6 13.8141 15.7146 13.5499 15.9166 13.3608C17.2276 12.1334 18 10.5327 18 8.8C18 5.17386 14.5573 2 10 2Z" fill="#27272A"/>
</svg>
