<svg width="20" height="20" viewBox="0 0 20 20" fill="none" xmlns="http://www.w3.org/2000/svg">
<path fill-rule="evenodd" clip-rule="evenodd" d="M7.54546 0C7.09451 0 6.69935 0.301821 6.58069 0.736883L4.32712 9H1C0.447715 9 0 9.44771 0 10V19C0 19.5523 0.447715 20 1 20H15.2587C16.0833 19.9991 16.8803 19.7034 17.5059 19.1661C18.1314 18.6289 18.5441 17.8855 18.6695 17.0705L19.5507 11.3433C19.6264 10.851 19.5947 10.3482 19.4579 9.86933C19.3211 9.39045 19.0824 8.9468 18.7581 8.56881C18.4338 8.19081 18.0316 7.88741 17.5791 7.67939C17.1266 7.47137 16.6344 7.36366 16.1364 7.36364H11V3.45455C11 2.53834 10.636 1.65967 9.98819 1.01181C9.34034 0.36396 8.46166 0 7.54546 0ZM4.09091 18V11H2V18H4.09091ZM6.09091 10.1339L8.25834 2.18667C8.37299 2.25113 8.47933 2.33138 8.57398 2.42603C8.84676 2.69881 9 3.06878 9 3.45455V8.36364C9 8.91592 9.44772 9.36364 10 9.36364H16.1364C16.3461 9.36365 16.5533 9.40901 16.7438 9.49658C16.9343 9.58417 17.1037 9.71192 17.2402 9.87108C17.3767 10.0302 17.4773 10.217 17.5349 10.4187C17.5924 10.6203 17.6058 10.832 17.5739 11.0393L16.6927 16.7665C16.6399 17.1097 16.4662 17.4227 16.2028 17.6489C15.9394 17.8751 15.6038 17.9996 15.2566 18H6.09091V10.1339Z" fill="#27272A"/>
</svg>
