<svg width="14" height="10" viewBox="0 0 14 10" fill="none" xmlns="http://www.w3.org/2000/svg">
<path fill-rule="evenodd" clip-rule="evenodd" d="M1.80078 5.00002C1.84838 5.06737 1.9031 5.14289 1.9647 5.22502C2.22983 5.57853 2.6181 6.0489 3.10989 6.51727C4.10809 7.46794 5.45012 8.33336 7.00012 8.33336C8.55012 8.33336 9.89215 7.46794 10.8904 6.51727C11.3821 6.0489 11.7704 5.57853 12.0355 5.22502C12.0971 5.14289 12.1519 5.06737 12.1995 5.00002C12.1519 4.93267 12.0971 4.85715 12.0355 4.77502C11.7704 4.42151 11.3821 3.95114 10.8904 3.48277C9.89215 2.5321 8.55012 1.66668 7.00012 1.66668C5.45012 1.66668 4.10809 2.5321 3.10989 3.48277C2.6181 3.95114 2.22983 4.42151 1.9647 4.77502C1.9031 4.85715 1.84838 4.93267 1.80078 5.00002ZM13.0001 5.00002C13.5718 4.65702 13.5717 4.65682 13.5715 4.65661L13.5705 4.65481L13.5682 4.65114L13.5611 4.6395C13.5552 4.62988 13.5469 4.61654 13.5364 4.59974C13.5152 4.56614 13.4847 4.51866 13.4453 4.45926C13.3664 4.34054 13.2513 4.1738 13.1022 3.97502C12.8048 3.57853 12.3681 3.04889 11.8099 2.51726C10.7081 1.46792 9.05012 0.333344 7.00012 0.333344C4.95012 0.333344 3.29214 1.46792 2.19035 2.51726C1.63213 3.04889 1.1954 3.57853 0.898033 3.97502C0.748945 4.1738 0.633824 4.34054 0.554962 4.45926C0.515506 4.51866 0.485052 4.56614 0.463887 4.59974C0.453302 4.61654 0.445034 4.62988 0.439118 4.6395L0.432011 4.65114L0.429787 4.65481L0.429009 4.6561C0.428879 4.65631 0.428454 4.65702 1.00012 5.00002L0.428454 4.65702L0.222656 5.00002L0.428454 5.34302L1.00012 5.00002C0.428454 5.34302 0.428325 5.3428 0.428454 5.34302L0.429009 5.34394L0.429787 5.34523L0.432011 5.3489L0.439118 5.36053C0.445034 5.37016 0.453302 5.3835 0.463887 5.4003C0.485052 5.43389 0.515506 5.48138 0.554962 5.54078C0.633824 5.6595 0.748945 5.82624 0.898033 6.02502C1.1954 6.42151 1.63213 6.95115 2.19035 7.48278C3.29214 8.53212 4.95012 9.6667 7.00012 9.6667C9.05012 9.6667 10.7081 8.53212 11.8099 7.48278C12.3681 6.95115 12.8048 6.42151 13.1022 6.02502C13.2513 5.82624 13.3664 5.6595 13.4453 5.54078C13.4847 5.48138 13.5152 5.43389 13.5364 5.4003C13.5469 5.3835 13.5552 5.37016 13.5611 5.36053L13.5682 5.3489L13.5705 5.34523L13.5712 5.34394C13.5714 5.34372 13.5718 5.34302 13.0001 5.00002ZM13.0001 5.00002L13.5718 5.34302L13.7776 5.00002L13.5715 4.65661L13.0001 5.00002Z" fill="#444444"/>
<path fill-rule="evenodd" clip-rule="evenodd" d="M7.00009 4.06668C6.37744 4.06668 5.95247 4.52712 5.95247 5.00002C5.95247 5.47291 6.37744 5.93336 7.00009 5.93336C7.62275 5.93336 8.04771 5.47291 8.04771 5.00002C8.04771 4.52712 7.62275 4.06668 7.00009 4.06668ZM4.61914 5.00002C4.61914 3.7056 5.7292 2.73335 7.00009 2.73335C8.27099 2.73335 9.38105 3.7056 9.38105 5.00002C9.38105 6.29444 8.27099 7.26669 7.00009 7.26669C5.7292 7.26669 4.61914 6.29444 4.61914 5.00002Z" fill="#444444"/>
</svg>
