<svg width="20" height="18" viewBox="0 0 20 18" fill="none" xmlns="http://www.w3.org/2000/svg">
<path fill-rule="evenodd" clip-rule="evenodd" d="M11.7818 0.0674175C12.167 -0.0816713 12.6041 0.0213188 12.8822 0.32665L19.7393 7.85606C20.0869 8.23768 20.0869 8.8211 19.7393 9.20272L12.8822 16.7321C12.6041 17.0375 12.167 17.1405 11.7818 16.9914C11.3967 16.8423 11.1429 16.4718 11.1429 16.0588V12.3649C8.53626 12.4304 6.79898 12.7669 5.48591 13.4422C4.04775 14.1818 2.9919 15.3949 1.88191 17.4714C1.66567 17.8759 1.20195 18.0815 0.757005 17.97C0.312062 17.8585 0 17.4587 0 17C0 12.1338 1.68883 8.99155 4.16417 7.09959C6.27705 5.48467 8.85071 4.86723 11.1429 4.73457V0.999979C11.1429 0.587003 11.3967 0.216506 11.7818 0.0674175ZM13.1429 3.58318V5.70586C13.1429 6.25815 12.6951 6.70586 12.1429 6.70586C9.86054 6.70586 7.3235 7.20214 5.37869 8.6886C4.1191 9.65133 3.04199 11.0799 2.46077 13.2079C3.08063 12.5889 3.77144 12.0749 4.57123 11.6636C6.4827 10.6806 8.88799 10.3529 12.1429 10.3529C12.6951 10.3529 13.1429 10.8006 13.1429 11.3529V13.4756L17.6474 8.52939L13.1429 3.58318Z" fill="#27272A"/>
</svg>
