<svg width="18" height="17" viewBox="0 0 18 17" fill="none" xmlns="http://www.w3.org/2000/svg">
<path fill-rule="evenodd" clip-rule="evenodd" d="M4.89443 0.552786C4.72504 0.214002 4.37877 0 4 0C3.62123 0 3.27497 0.214002 3.10557 0.552786L0.105574 6.55279C-0.0494204 6.86277 -0.0328564 7.23091 0.14935 7.52573C0.331557 7.82055 0.653423 8 1 8H7C7.34658 8 7.66845 7.82055 7.85065 7.52573C8.03286 7.23091 8.04942 6.86277 7.89443 6.55279L4.89443 0.552786ZM4 3.23607L5.38197 6H2.61804L4 3.23607Z" fill="#27272A"/>
<path fill-rule="evenodd" clip-rule="evenodd" d="M9 5.5C9 3.01472 11.0147 1 13.5 1C15.9853 1 18 3.01472 18 5.5C18 7.98528 15.9853 10 13.5 10C11.0147 10 9 7.98528 9 5.5ZM13.5 3C12.1193 3 11 4.11929 11 5.5C11 6.88071 12.1193 8 13.5 8C14.8807 8 16 6.88071 16 5.5C16 4.11929 14.8807 3 13.5 3Z" fill="#27272A"/>
<path fill-rule="evenodd" clip-rule="evenodd" d="M3 11C3 10.4477 3.44772 10 4 10H9C9.55228 10 10 10.4477 10 11V16C10 16.5523 9.55228 17 9 17H4C3.44772 17 3 16.5523 3 16V11ZM5 12V15H8V12H5Z" fill="#27272A"/>
</svg>
